<svg width="27.614258" height="24.158142" viewBox="0 0 27.6143 24.1581" fill="none" xmlns="http://www.w3.org/2000/svg" xmlns:xlink="http://www.w3.org/1999/xlink">
	<path id="Vector" d="M23.6816 6.21967L27.1445 6.21967L27.1445 9.95154L23.6816 9.95154L23.6816 17.0825C23.6816 19.5095 23.8315 19.5023 24.1323 19.7866C24.4326 20.0709 25.0342 20.2131 25.9355 20.2131C26.2363 20.2486 26.499 20.2131 26.7998 20.1776C27.063 20.1776 27.4263 19.9762 27.6138 19.7866L27.6138 23.6961C27.1445 23.8968 26.6118 24.1226 26.0859 24.1226C25.5225 24.1581 24.9966 24.1581 24.4702 24.1581C24.4351 24.1581 23.8403 24.1581 23.5898 24.1226C22.9795 24.036 22.0723 23.7139 21.5088 23.394C21.1958 23.2163 20.3818 22.4166 20.2876 22.0612C20.0059 21.6169 19.8491 20.7462 19.8491 19.8221L19.8491 9.95154L16.5308 9.95154L16.5308 6.21967L19.8491 6.21967L19.8491 0L23.6816 0L23.6816 6.21967Z" fill="#10239E" fill-opacity="1.000000" fill-rule="nonzero"/>
	<path id="Vector" d="M0 9.95154L2.62988 9.95154L2.62988 23.7316L6.83789 23.7316L6.83789 9.95154L9.95605 9.95154L9.95605 6.21973L6.83789 6.21973L6.83789 5.89984C6.83789 5.15344 6.98828 4.4447 7.28857 4.12482C7.58936 3.80493 8.11523 3.62726 8.8667 3.62726C9.54297 3.62726 10.1816 3.66278 10.8203 3.73389L10.8203 0L9.39258 0L7.98389 0C6.19922 0 4.79004 0.860962 3.94482 1.68823C2.85547 2.75446 2.62988 3.98059 2.62988 5.57996L2.62988 6.21973L0 6.21973L0 9.95154ZM15.4038 11.5508L11.3086 11.5508L11.3086 23.7316L15.4038 23.7316L15.4038 11.5508Z" fill="#10239E" fill-opacity="1.000000" fill-rule="evenodd"/>
	<path id="Vector" d="M13.4434 10.0814L13.4194 10.0814C12.3364 10.0814 11.459 9.2038 11.459 8.12115C11.459 7.03851 12.3364 6.16089 13.4194 6.16089L13.4434 6.16089C14.5264 6.16089 15.4038 7.03851 15.4038 8.12115C15.4038 9.2038 14.5264 10.0814 13.4434 10.0814Z" fill="#40A9FF" fill-opacity="1.000000" fill-rule="evenodd"/>
</svg>
