<svg width="13.658691" height="14.142853" viewBox="0 0 13.6587 14.1429" fill="none" xmlns="http://www.w3.org/2000/svg" xmlns:xlink="http://www.w3.org/1999/xlink">
	<path id="Vector" d="M13.1587 0L3.73828 0C3.46191 0 3.23828 0.223206 3.23828 0.5L3.23828 3.5C3.23828 3.53928 3.27051 3.57144 3.31006 3.57144L4.38135 3.57144C4.42041 3.57144 4.45264 3.53928 4.45264 3.5L4.45264 1.21429L12.4443 1.21429L12.4443 12.9286L4.45264 12.9286L4.45264 10.6429C4.45264 10.6036 4.42041 10.5714 4.38135 10.5714L3.31006 10.5714C3.27051 10.5714 3.23828 10.6036 3.23828 10.6429L3.23828 13.6429C3.23828 13.9196 3.46191 14.1429 3.73828 14.1429L13.1587 14.1429C13.4355 14.1429 13.6587 13.9196 13.6587 13.6429L13.6587 0.5C13.6587 0.223206 13.4355 0 13.1587 0ZM2.85742 4.9393L2.85742 6.46429L9.77783 6.46429L9.77783 7.67856L2.85742 7.67856L2.85742 9.20358C2.85742 9.27142 2.77881 9.30893 2.72705 9.26785L0.0307617 7.13394C0.0209961 7.12637 0.0131836 7.11676 0.00830078 7.10577C0.00292969 7.09479 0 7.08273 0 7.07053C0 7.05832 0.00292969 7.0463 0.00830078 7.03531C0.0131836 7.02432 0.0209961 7.01471 0.0307617 7.00714L2.72705 4.875C2.78076 4.83215 2.85742 4.87143 2.85742 4.9393Z" fill="currentColor" fill-opacity="1.000000" fill-rule="evenodd"/>
</svg>
